<svg width="91" height="36" viewBox="0 0 91 36" fill="none" xmlns="http://www.w3.org/2000/svg">
<path d="M9.38254 30.432C6.59854 30.432 4.52254 29.7 3.15454 28.236C1.81054 26.748 1.09054 24.396 0.994544 21.18L6.50254 20.352C6.52654 22.2 6.74254 23.532 7.15054 24.348C7.58254 25.14 8.21854 25.536 9.05854 25.536C10.1385 25.536 10.6785 24.828 10.6785 23.412C10.6785 22.284 10.4145 21.312 9.88654 20.496C9.38254 19.68 8.57854 18.804 7.47454 17.868L4.95454 15.672C3.70654 14.616 2.73454 13.5 2.03854 12.324C1.36654 11.124 1.03054 9.708 1.03054 8.076C1.03054 5.628 1.75054 3.744 3.19054 2.424C4.65454 1.104 6.65854 0.443999 9.20254 0.443999C11.9625 0.443999 13.8345 1.248 14.8185 2.856C15.8265 4.464 16.3665 6.42 16.4385 8.724L10.8945 9.408C10.8465 7.896 10.7025 6.816 10.4625 6.168C10.2465 5.496 9.75454 5.16 8.98654 5.16C8.43454 5.16 8.00254 5.4 7.69054 5.88C7.40254 6.336 7.25854 6.852 7.25854 7.428C7.25854 8.412 7.47454 9.24 7.90654 9.912C8.36254 10.584 9.08254 11.352 10.0665 12.216L12.4785 14.34C13.9185 15.564 15.0345 16.86 15.8265 18.228C16.6185 19.596 17.0145 21.216 17.0145 23.088C17.0145 24.456 16.6905 25.704 16.0425 26.832C15.4185 27.936 14.5305 28.812 13.3785 29.46C12.2265 30.108 10.8945 30.432 9.38254 30.432ZM37.3787 35.724C36.5147 35.364 35.4827 34.656 34.2827 33.6C33.0827 32.568 32.1227 31.5 31.4027 30.396C31.2827 30.42 31.0787 30.432 30.7907 30.432C27.6467 30.432 25.4027 29.628 24.0587 28.02C22.7147 26.388 22.0427 23.988 22.0427 20.82V9.984C22.0427 6.816 22.7147 4.44 24.0587 2.856C25.4027 1.248 27.6467 0.443999 30.7907 0.443999C33.9587 0.443999 36.2147 1.248 37.5587 2.856C38.9267 4.464 39.6107 6.84 39.6107 9.984V20.82C39.6107 22.956 39.2987 24.744 38.6747 26.184C38.0747 27.6 37.1027 28.656 35.7587 29.352C36.9827 30.672 37.9787 31.524 38.7467 31.908L37.3787 35.724ZM30.7907 25.86C31.7027 25.86 32.3027 25.56 32.5907 24.96C32.8787 24.336 33.0227 23.496 33.0227 22.44V8.4C33.0227 7.32 32.8787 6.48 32.5907 5.88C32.3027 5.28 31.7027 4.98 30.7907 4.98C29.8787 4.98 29.2907 5.28 29.0267 5.88C28.7627 6.456 28.6307 7.296 28.6307 8.4V22.44C28.6307 23.496 28.7627 24.336 29.0267 24.96C29.2907 25.56 29.8787 25.86 30.7907 25.86ZM44.6485 0.839998H50.1205L51.8485 17.832L54.0445 0.875999H58.3285L60.6325 17.724L62.3965 0.839998H67.7965L64.3045 30H58.6885L56.2045 12.396L53.8645 30H48.1765L44.6485 0.839998ZM73.242 0.839998H80.622C83.142 0.839998 85.11 1.152 86.526 1.776C87.942 2.4 88.938 3.384 89.514 4.728C90.114 6.048 90.414 7.824 90.414 10.056V20.64C90.414 22.896 90.114 24.696 89.514 26.04C88.938 27.384 87.942 28.38 86.526 29.028C85.134 29.676 83.19 30 80.694 30H73.242V0.839998ZM80.694 25.536C81.63 25.536 82.314 25.404 82.746 25.14C83.202 24.852 83.49 24.456 83.61 23.952C83.73 23.424 83.79 22.656 83.79 21.648V8.94C83.79 8.004 83.718 7.296 83.574 6.816C83.454 6.312 83.166 5.94 82.71 5.7C82.278 5.46 81.594 5.34 80.658 5.34H79.686V25.536H80.694Z" fill="white"/>
</svg>
